<svg version="1.0" xmlns="http://www.w3.org/2000/svg" viewBox="0 0 24 24"><path d="M0 0h24v24H0V0z" fill="none"/><path d="M12 7.33a4.64 4.64 0 10.03 0H12zm0 7.61a3 3 0 113-3 3 3 0 01-3 3z" fill="#000"/><circle cx="16.83" cy="7.22" r="1.05" fill="#000"/><path d="M19.55 4.5A5.182 5.182 0 0015.74 3H8.27A5 5 0 003 7.67v8.03a5.243 5.243 0 001.52 3.88A5.323 5.323 0 008.31 21h7.39a5.374 5.374 0 003.81-1.42A5.227 5.227 0 0021 15.74V8.27a5.23 5.23 0 00-1.45-3.77zm-.15 11.24a3.601 3.601 0 01-1 2.65 3.788 3.788 0 01-2.65.94H8.31a3.762 3.762 0 01-2.65-.94 3.668 3.668 0 01-1-2.69V8.27a3.601 3.601 0 011-2.65 3.67 3.67 0 012.65-.94h7.47a3.56 3.56 0 012.64 1 3.742 3.742 0 011 2.61v7.47l-.02-.02z" fill="#000"/></svg>