<svg version="1.0" xmlns="http://www.w3.org/2000/svg" viewBox="0 0 24 24"><path d="M0 0h24v24H0V0z" fill="none"/><path d="M7.72 19.33v-9.7h-3v9.7h3zm0-13.14a1.47 1.47 0 00-1.408-1.53H6.19a1.49 1.49 0 00-1.56 1.41v.12A1.471 1.471 0 006 7.72h.13a1.46 1.46 0 001.55-1.4.271.271 0 00.04-.13zm4.9 13.14v-5.52a2.168 2.168 0 01.1-.8 1.8 1.8 0 011.69-1.2 1.792 1.792 0 011.95 1.615v.005c.01.126.01.254 0 .38v5.53h3v-5.68c0-3-1.62-4.46-3.79-4.46a3.289 3.289 0 00-3 1.67v-1.3h-3c.05.93 0 9.76 0 9.76h3.05z" fill-rule="evenodd" clip-rule="evenodd" fill="#000"/></svg>