<?xml version="1.0" encoding="utf-8"?>
<!-- Generator: Adobe Illustrator 25.4.1, SVG Export Plug-In . SVG Version: 6.00 Build 0)  -->
<svg version="1.1" id="Ebene_1" xmlns="http://www.w3.org/2000/svg" xmlns:xlink="http://www.w3.org/1999/xlink" x="0px" y="0px"
	 viewBox="0 0 120 39" style="enable-background:new 0 0 120 39;" xml:space="preserve">
<style type="text/css">
	.st0{fill:#1D1D1B;}
	.st1{fill:#214631;}
	.st2{fill:#DBD000;}
</style>
<g>
	<g>
		<path class="st0" d="M3.184,35.848l-2.441-6.377H0.704c0.046,0.506,0.069,1.106,0.069,1.801v4.576H0v-7.194h1.26l2.278,5.934
			h0.039l2.298-5.934h1.25v7.194H6.288v-4.635c0-0.531,0.023-1.108,0.069-1.732H6.318l-2.46,6.367H3.184z"/>
		<path class="st0" d="M8.119,30.455h0.876l1.181,3.075c0.259,0.703,0.42,1.209,0.482,1.52h0.039
			c0.042-0.167,0.132-0.454,0.268-0.858c0.137-0.405,0.582-1.651,1.336-3.738h0.876l-2.318,6.141
			c-0.229,0.607-0.498,1.037-0.804,1.292c-0.307,0.254-0.684,0.381-1.13,0.381c-0.249,0-0.495-0.028-0.738-0.084v-0.654
			c0.18,0.039,0.382,0.059,0.605,0.059c0.561,0,0.961-0.315,1.201-0.945l0.3-0.768L8.119,30.455z"/>
		<path class="st0" d="M16.208,35.946c-0.78,0-1.386-0.24-1.813-0.72c-0.429-0.481-0.643-1.16-0.643-2.04
			c0-0.901,0.217-1.599,0.652-2.091c0.434-0.492,1.053-0.738,1.857-0.738c0.259,0,0.519,0.029,0.777,0.084
			c0.259,0.056,0.463,0.122,0.61,0.197l-0.251,0.694c-0.18-0.072-0.377-0.132-0.59-0.179c-0.214-0.048-0.402-0.072-0.566-0.072
			c-1.095,0-1.643,0.699-1.643,2.096c0,0.663,0.134,1.171,0.401,1.525c0.268,0.354,0.664,0.531,1.189,0.531
			c0.45,0,0.91-0.096,1.383-0.29v0.723C17.21,35.853,16.756,35.946,16.208,35.946z"/>
		<path class="st0" d="M23.505,33.146c0,0.88-0.221,1.566-0.664,2.06c-0.443,0.493-1.055,0.74-1.835,0.74
			c-0.482,0-0.91-0.113-1.284-0.34s-0.662-0.551-0.866-0.974c-0.204-0.423-0.305-0.918-0.305-1.486c0-0.879,0.219-1.564,0.659-2.054
			c0.44-0.491,1.05-0.736,1.83-0.736c0.755,0,1.354,0.251,1.798,0.753C23.283,31.611,23.505,32.29,23.505,33.146z M19.396,33.146
			c0,0.689,0.138,1.214,0.413,1.575c0.276,0.361,0.681,0.541,1.215,0.541s0.941-0.179,1.218-0.538
			c0.277-0.359,0.415-0.885,0.415-1.577c0-0.685-0.139-1.206-0.415-1.562c-0.278-0.356-0.687-0.534-1.228-0.534
			c-0.534,0-0.938,0.176-1.21,0.526C19.532,31.928,19.396,32.452,19.396,33.146z"/>
		<path class="st0" d="M26.679,35.272c0.145,0,0.283-0.011,0.418-0.031c0.135-0.022,0.241-0.043,0.32-0.067v0.625
			c-0.089,0.043-0.218,0.078-0.392,0.106c-0.171,0.028-0.327,0.041-0.464,0.041c-1.043,0-1.565-0.549-1.565-1.648V31.09h-0.773
			v-0.394l0.773-0.34l0.344-1.151h0.472v1.25h1.565v0.635h-1.565v3.174c0,0.325,0.077,0.575,0.231,0.748
			C26.198,35.185,26.41,35.272,26.679,35.272z"/>
		<path class="st0" d="M33.149,33.146c0,0.88-0.221,1.566-0.664,2.06c-0.443,0.493-1.055,0.74-1.835,0.74
			c-0.482,0-0.91-0.113-1.284-0.34s-0.662-0.551-0.866-0.974c-0.204-0.423-0.305-0.918-0.305-1.486c0-0.879,0.219-1.564,0.659-2.054
			c0.44-0.491,1.05-0.736,1.83-0.736c0.755,0,1.354,0.251,1.798,0.753C32.927,31.611,33.149,32.29,33.149,33.146z M29.041,33.146
			c0,0.689,0.138,1.214,0.413,1.575c0.276,0.361,0.681,0.541,1.215,0.541s0.941-0.179,1.218-0.538
			c0.277-0.359,0.415-0.885,0.415-1.577c0-0.685-0.139-1.206-0.415-1.562c-0.278-0.356-0.687-0.534-1.228-0.534
			c-0.534,0-0.938,0.176-1.21,0.526C29.176,31.928,29.041,32.452,29.041,33.146z"/>
		<path class="st0" d="M35.88,33.087l-1.875-2.632h0.93l1.422,2.067l1.417-2.067h0.92l-1.875,2.632l1.973,2.76h-0.925l-1.511-2.185
			l-1.525,2.185h-0.925L35.88,33.087z"/>
		<path class="st0" d="M39.792,28.994c0-0.187,0.046-0.324,0.138-0.41c0.092-0.088,0.207-0.131,0.344-0.131
			c0.131,0,0.244,0.044,0.34,0.133c0.095,0.089,0.143,0.225,0.143,0.408c0,0.184-0.047,0.321-0.143,0.411
			c-0.095,0.09-0.209,0.135-0.34,0.135c-0.138,0-0.253-0.045-0.344-0.135C39.838,29.314,39.792,29.178,39.792,28.994z
			 M40.677,35.848h-0.817v-5.393h0.817V35.848z"/>
		<path class="st0" d="M46.1,35.848v-3.489c0-0.439-0.1-0.768-0.3-0.984c-0.2-0.216-0.514-0.325-0.94-0.325
			c-0.564,0-0.977,0.153-1.24,0.458c-0.263,0.305-0.394,0.809-0.394,1.511v2.829h-0.817v-5.393h0.664l0.133,0.738h0.039
			c0.167-0.266,0.402-0.471,0.704-0.617c0.302-0.147,0.638-0.219,1.009-0.219c0.65,0,1.139,0.156,1.466,0.47
			c0.328,0.313,0.492,0.814,0.492,1.503v3.518H46.1z"/>
		<path class="st0" d="M52.172,32.856v2.992h-0.836v-7.194h1.973c0.883,0,1.534,0.169,1.956,0.507
			c0.421,0.339,0.632,0.846,0.632,1.525c0,0.952-0.482,1.594-1.447,1.929l1.953,3.233h-0.989l-1.742-2.992H52.172z M52.172,32.138
			h1.146c0.59,0,1.023-0.117,1.299-0.351c0.276-0.235,0.413-0.587,0.413-1.056c0-0.475-0.14-0.818-0.421-1.028
			c-0.279-0.21-0.73-0.315-1.35-0.315h-1.087V32.138z"/>
		<path class="st0" d="M57.372,28.994c0-0.187,0.046-0.324,0.138-0.41c0.092-0.088,0.207-0.131,0.344-0.131
			c0.131,0,0.244,0.044,0.34,0.133c0.095,0.089,0.143,0.225,0.143,0.408c0,0.184-0.047,0.321-0.143,0.411
			c-0.095,0.09-0.209,0.135-0.34,0.135c-0.138,0-0.253-0.045-0.344-0.135C57.419,29.314,57.372,29.178,57.372,28.994z
			 M58.258,35.848h-0.817v-5.393h0.817V35.848z"/>
		<path class="st0" d="M63.469,34.376c0,0.502-0.187,0.89-0.561,1.161c-0.374,0.273-0.898,0.408-1.575,0.408
			c-0.715,0-1.272-0.113-1.673-0.34v-0.758c0.259,0.132,0.537,0.235,0.834,0.31c0.297,0.076,0.584,0.113,0.859,0.113
			c0.426,0,0.755-0.068,0.984-0.204c0.229-0.137,0.344-0.343,0.344-0.623c0-0.21-0.092-0.39-0.273-0.538
			c-0.183-0.15-0.537-0.326-1.066-0.529c-0.502-0.187-0.859-0.35-1.07-0.489c-0.213-0.14-0.37-0.298-0.472-0.475
			c-0.104-0.177-0.155-0.389-0.155-0.635c0-0.439,0.179-0.786,0.536-1.04c0.357-0.255,0.848-0.382,1.471-0.382
			c0.581,0,1.148,0.118,1.702,0.354l-0.29,0.664c-0.541-0.222-1.031-0.335-1.471-0.335c-0.387,0-0.679,0.061-0.876,0.182
			c-0.197,0.122-0.295,0.289-0.295,0.502c0,0.145,0.037,0.268,0.11,0.369c0.075,0.102,0.193,0.199,0.357,0.29
			c0.164,0.093,0.479,0.225,0.945,0.399c0.64,0.233,1.072,0.467,1.296,0.704C63.357,33.722,63.469,34.019,63.469,34.376z"/>
		<path class="st0" d="M65.604,33.087c0.141-0.2,0.356-0.463,0.645-0.787l1.742-1.845h0.969l-2.185,2.298l2.337,3.095h-0.989
			l-1.904-2.549l-0.615,0.531v2.017h-0.807v-7.656h0.807v4.059c0,0.181-0.013,0.46-0.039,0.836H65.604z"/>
		<path class="st0" d="M76.838,35.848h-4.01v-7.194h4.01v0.743h-3.174v2.318h2.982v0.738h-2.982V35.1h3.174V35.848z"/>
		<path class="st0" d="M79.49,35.848l-2.047-5.393h0.876l1.161,3.198c0.263,0.748,0.416,1.234,0.463,1.456h0.039
			c0.036-0.173,0.15-0.533,0.342-1.08c0.191-0.546,0.622-1.738,1.291-3.575h0.876l-2.047,5.393H79.49z"/>
		<path class="st0" d="M86.674,35.848l-0.162-0.768h-0.039c-0.269,0.339-0.537,0.567-0.804,0.687
			c-0.268,0.119-0.601,0.179-1.002,0.179c-0.534,0-0.954-0.138-1.258-0.413c-0.303-0.276-0.455-0.667-0.455-1.176
			c0-1.088,0.871-1.659,2.613-1.712l0.915-0.03V32.28c0-0.423-0.092-0.735-0.273-0.937c-0.183-0.202-0.473-0.303-0.874-0.303
			c-0.45,0-0.958,0.138-1.525,0.413l-0.251-0.625c0.266-0.144,0.557-0.257,0.873-0.34c0.317-0.082,0.635-0.123,0.953-0.123
			c0.643,0,1.12,0.143,1.429,0.428c0.311,0.285,0.465,0.743,0.465,1.373v3.68H86.674z M84.829,35.272
			c0.509,0,0.908-0.139,1.198-0.418c0.291-0.278,0.436-0.669,0.436-1.171v-0.487l-0.817,0.034c-0.649,0.024-1.118,0.124-1.404,0.303
			c-0.287,0.178-0.431,0.457-0.431,0.834c0,0.295,0.09,0.521,0.268,0.674C84.257,35.195,84.507,35.272,84.829,35.272z"/>
		<path class="st0" d="M89.779,35.848h-0.817v-7.656h0.817V35.848z"/>
		<path class="st0" d="M92.278,30.455v3.498c0,0.44,0.1,0.768,0.3,0.984s0.514,0.325,0.94,0.325c0.564,0,0.976-0.154,1.238-0.463
			c0.26-0.308,0.391-0.812,0.391-1.511v-2.834h0.817v5.393h-0.674l-0.118-0.723h-0.044c-0.167,0.266-0.4,0.469-0.696,0.61
			c-0.297,0.142-0.636,0.212-1.017,0.212c-0.656,0-1.147-0.155-1.473-0.467c-0.327-0.311-0.49-0.81-0.49-1.496v-3.528H92.278z"/>
		<path class="st0" d="M101.012,35.848l-0.162-0.768h-0.039c-0.269,0.339-0.537,0.567-0.804,0.687
			c-0.268,0.119-0.601,0.179-1.002,0.179c-0.534,0-0.954-0.138-1.258-0.413c-0.303-0.276-0.455-0.667-0.455-1.176
			c0-1.088,0.871-1.659,2.613-1.712l0.915-0.03V32.28c0-0.423-0.092-0.735-0.273-0.937c-0.183-0.202-0.473-0.303-0.874-0.303
			c-0.45,0-0.958,0.138-1.525,0.413l-0.251-0.625c0.266-0.144,0.557-0.257,0.873-0.34c0.317-0.082,0.635-0.123,0.953-0.123
			c0.643,0,1.12,0.143,1.429,0.428c0.311,0.285,0.465,0.743,0.465,1.373v3.68H101.012z M99.167,35.272
			c0.509,0,0.908-0.139,1.198-0.418c0.291-0.278,0.436-0.669,0.436-1.171v-0.487l-0.817,0.034c-0.649,0.024-1.118,0.124-1.404,0.303
			c-0.287,0.178-0.431,0.457-0.431,0.834c0,0.295,0.09,0.521,0.268,0.674C98.595,35.195,98.845,35.272,99.167,35.272z"/>
		<path class="st0" d="M105.042,35.272c0.145,0,0.283-0.011,0.418-0.031c0.135-0.022,0.241-0.043,0.32-0.067v0.625
			c-0.089,0.043-0.218,0.078-0.392,0.106c-0.171,0.028-0.327,0.041-0.464,0.041c-1.043,0-1.565-0.549-1.565-1.648V31.09h-0.773
			v-0.394l0.773-0.34l0.344-1.151h0.472v1.25h1.565v0.635h-1.565v3.174c0,0.325,0.077,0.575,0.231,0.748
			C104.562,35.185,104.773,35.272,105.042,35.272z"/>
		<path class="st0" d="M106.789,28.994c0-0.187,0.046-0.324,0.138-0.41c0.092-0.088,0.207-0.131,0.344-0.131
			c0.131,0,0.244,0.044,0.34,0.133c0.095,0.089,0.143,0.225,0.143,0.408c0,0.184-0.047,0.321-0.143,0.411
			c-0.095,0.09-0.209,0.135-0.34,0.135c-0.138,0-0.253-0.045-0.344-0.135C106.835,29.314,106.789,29.178,106.789,28.994z
			 M107.674,35.848h-0.817v-5.393h0.817V35.848z"/>
		<path class="st0" d="M114.061,33.146c0,0.88-0.221,1.566-0.664,2.06c-0.443,0.493-1.055,0.74-1.835,0.74
			c-0.482,0-0.91-0.113-1.284-0.34s-0.662-0.551-0.866-0.974c-0.204-0.423-0.305-0.918-0.305-1.486c0-0.879,0.219-1.564,0.659-2.054
			c0.44-0.491,1.05-0.736,1.83-0.736c0.755,0,1.354,0.251,1.798,0.753C113.839,31.611,114.061,32.29,114.061,33.146z
			 M109.952,33.146c0,0.689,0.138,1.214,0.413,1.575c0.276,0.361,0.681,0.541,1.215,0.541c0.534,0,0.941-0.179,1.218-0.538
			c0.277-0.359,0.415-0.885,0.415-1.577c0-0.685-0.139-1.206-0.415-1.562c-0.278-0.356-0.687-0.534-1.228-0.534
			c-0.534,0-0.938,0.176-1.21,0.526C110.088,31.928,109.952,32.452,109.952,33.146z"/>
		<path class="st0" d="M119.183,35.848v-3.489c0-0.439-0.1-0.768-0.3-0.984s-0.514-0.325-0.94-0.325
			c-0.564,0-0.977,0.153-1.24,0.458c-0.263,0.305-0.394,0.809-0.394,1.511v2.829h-0.817v-5.393h0.664l0.133,0.738h0.039
			c0.167-0.266,0.402-0.471,0.704-0.617c0.302-0.147,0.638-0.219,1.009-0.219c0.65,0,1.139,0.156,1.466,0.47
			C119.836,31.14,120,31.641,120,32.33v3.518H119.183z"/>
	</g>
	<g>
		<path class="st1" d="M17.157,10.327v2.293l-0.109,0.057c-0.14,0.093-0.241,0.181-0.302,0.274c-0.062,0.088-0.09,0.201-0.09,0.331
			v4.715c0,0.26,0.039,0.441,0.124,0.542c0.08,0.092,0.206,0.142,0.378,0.146v1.539c-0.116,0.063-0.239,0.119-0.367,0.167
			c-0.33,0.117-0.678,0.176-1.053,0.176c-0.818,0-1.406-0.231-1.753-0.694c-0.353-0.466-0.526-1.34-0.526-2.63v-3.853
			c0-0.525,0.129-0.949,0.386-1.282c0.258-0.328,0.689-0.626,1.305-0.895L17.157,10.327L17.157,10.327z M17.157,3.681v1.895
			c-0.172,0.004-0.298,0.054-0.378,0.147c-0.084,0.1-0.124,0.277-0.124,0.53v3.126h-3.197V5.971c0-0.844,0.269-1.437,0.812-1.777
			c0.543-0.34,1.501-0.512,2.879-0.512H17.157L17.157,3.681z M6.989,4.543c0.241-0.286,0.521-0.504,0.84-0.647
			c0.325-0.143,0.689-0.214,1.092-0.214c0.801,0,1.383,0.227,1.747,0.685c0.364,0.453,0.548,1.201,0.548,2.244v13.863H8.148V5.971
			c0-0.084-0.05-0.159-0.157-0.235c-0.1-0.071-0.212-0.11-0.335-0.11c-0.185,0-0.314,0.047-0.393,0.134
			C7.191,5.853,7.151,6.034,7.151,6.303v14.17H4.049V5.971c0-0.084-0.045-0.159-0.14-0.235c-0.089-0.071-0.196-0.11-0.319-0.11
			c-0.196,0-0.336,0.051-0.414,0.147c-0.084,0.101-0.123,0.278-0.123,0.53v14.17H0V3.778h3.052v0.764
			C3.338,4.269,3.656,4.06,4.021,3.908c0.358-0.152,0.711-0.227,1.047-0.227c0.37,0,0.728,0.075,1.064,0.222
			C6.473,4.051,6.759,4.265,6.989,4.543 M32.244,0h3.18v3.778h1.31v1.869h-1.31v12.278c0,0.295,0.062,0.484,0.18,0.56
			c0.123,0.079,0.442,0.117,0.968,0.117h0.162v1.871h-0.968c-1.439,0-2.391-0.177-2.845-0.535c-0.454-0.357-0.677-1.134-0.677-2.332
			V5.648h-0.79V3.778h0.79V0L32.244,0z M22.728,14.245h3.197v3.828c0,0.219,0.039,0.382,0.123,0.484
			c0.084,0.105,0.207,0.155,0.37,0.155c0.174,0,0.302-0.05,0.386-0.155c0.084-0.101,0.123-0.265,0.123-0.484v-4.529
			c0-0.114-0.073-0.24-0.213-0.374c-0.146-0.139-0.331-0.256-0.56-0.366l-1.949-0.848c-0.537-0.232-0.918-0.514-1.142-0.845
			c-0.224-0.332-0.336-0.841-0.336-1.534V7.03c0-1.504,0.235-2.437,0.705-2.803c0.471-0.366,1.467-0.546,2.985-0.546
			c1.529,0,2.531,0.181,3.002,0.541c0.47,0.362,0.706,1.294,0.706,2.807v2.277h-3.198v-3.13c0-0.219-0.039-0.378-0.123-0.479
			c-0.084-0.097-0.213-0.147-0.386-0.147c-0.163,0-0.286,0.055-0.37,0.159c-0.084,0.109-0.123,0.265-0.123,0.467V9.53
			c0,0.235,0.056,0.412,0.163,0.529c0.112,0.113,0.314,0.24,0.61,0.382l1.948,0.908c0.538,0.247,0.919,0.524,1.143,0.831
			c0.224,0.307,0.336,0.812,0.336,1.509v3.509c0,1.525-0.236,2.466-0.711,2.819c-0.476,0.353-1.495,0.53-3.063,0.53
			c-1.462,0-2.436-0.181-2.912-0.542c-0.476-0.361-0.711-1.298-0.711-2.807V14.245L22.728,14.245z M17.157,20.225v-1.539h0.025
			c0.173,0,0.297-0.041,0.369-0.122c0.073-0.084,0.107-0.273,0.107-0.567v-5.64l-0.501,0.263v-2.293l0.501-0.222v-4.21
			c0-0.08-0.045-0.155-0.14-0.222c-0.096-0.063-0.208-0.097-0.336-0.097l-0.025,0.001V3.681c1.384,0.001,2.345,0.173,2.887,0.512
			c0.543,0.341,0.812,0.933,0.812,1.777v14.502h-3.198v-0.606C17.505,20.007,17.338,20.126,17.157,20.225 M41.672,3.681v1.895
			c-0.172,0.004-0.298,0.054-0.378,0.147c-0.084,0.1-0.123,0.277-0.123,0.53v4.517h0.501v1.857h-0.501v5.375
			c0,0.261,0.039,0.441,0.123,0.543c0.08,0.092,0.206,0.142,0.378,0.146v1.858h-0.008c-1.389,0-2.352-0.168-2.884-0.505
			c-0.538-0.335-0.807-0.923-0.807-1.761V5.971c0-0.844,0.269-1.437,0.812-1.777c0.543-0.34,1.501-0.512,2.878-0.512H41.672
			L41.672,3.681z M54.904,7.005v3.534h-3.197V5.971c0-0.084-0.045-0.159-0.141-0.235c-0.094-0.071-0.201-0.11-0.318-0.11
			c-0.196,0-0.336,0.051-0.42,0.147c-0.084,0.101-0.124,0.278-0.124,0.53v14.17h-3.198V3.828h3.198v0.555
			c0.252-0.223,0.544-0.395,0.879-0.517c0.331-0.122,0.678-0.185,1.042-0.185c0.818,0,1.405,0.231,1.753,0.697
			C54.73,4.841,54.904,5.715,54.904,7.005 M41.672,12.626V10.77h0.502V5.921c0-0.089-0.045-0.173-0.14-0.24
			c-0.095-0.071-0.207-0.105-0.336-0.105l-0.025,0.001V3.681c1.385,0.001,2.345,0.173,2.887,0.512
			c0.543,0.341,0.812,0.933,0.812,1.777v6.656H41.672L41.672,12.626z M41.672,20.548V18.69h0.025c0.174,0,0.297-0.041,0.37-0.122
			c0.073-0.084,0.107-0.273,0.107-0.567V14.24h3.197v4.042c0,0.837-0.268,1.426-0.812,1.761
			C44.017,20.379,43.057,20.547,41.672,20.548"/>
		<path class="st2" d="M63.318,20.521l-2.705-8.192c-0.628,0-1.273-0.067-1.932-0.201l-1.453,5.101
			c-0.196,0.67-0.294,1.231-0.294,1.684c0,0.351,0.118,0.624,0.356,0.819c0.185,0.155,0.685,0.263,1.499,0.324l-0.108,0.464h-6.538
			l0.139-0.464c0.619-0.02,1.036-0.082,1.252-0.185c0.34-0.144,0.587-0.335,0.742-0.572c0.268-0.391,0.546-1.082,0.835-2.071
			l2.952-10.186c0.195-0.68,0.294-1.205,0.294-1.577c0-0.381-0.157-0.705-0.472-0.973c-0.314-0.268-0.759-0.397-1.337-0.386
			l0.155-0.464h5.502c1.834,0,3.158,0.351,3.973,1.051c0.814,0.701,1.22,1.618,1.22,2.751c0,1.083-0.417,2.074-1.252,2.976
			c-0.834,0.901-1.978,1.471-3.431,1.707l1.654,4.946c0.392,1.216,0.788,2.005,1.19,2.365c0.402,0.36,1.045,0.567,1.932,0.618
			l-0.139,0.464H63.318L63.318,20.521z M58.882,11.432c0.536,0.072,1.01,0.108,1.423,0.108c1.432,0,2.562-0.397,3.392-1.19
			c0.83-0.794,1.245-1.778,1.245-2.952c0-0.927-0.261-1.636-0.781-2.125c-0.52-0.489-1.3-0.734-2.342-0.734
			c-0.258,0-0.572,0.036-0.942,0.108L58.882,11.432L58.882,11.432z"/>
		<path class="st2" d="M71.621,9.254l-2.458,8.732c-0.165,0.587-0.247,0.938-0.247,1.051c0,0.134,0.039,0.242,0.116,0.324
			c0.077,0.083,0.167,0.123,0.271,0.123c0.134,0,0.283-0.067,0.448-0.201c0.474-0.37,0.953-0.901,1.438-1.591l0.433,0.293
			c-0.567,0.856-1.232,1.582-1.994,2.179c-0.556,0.433-1.092,0.649-1.608,0.649c-0.34,0-0.618-0.1-0.834-0.301
			c-0.217-0.201-0.324-0.456-0.324-0.765c0-0.31,0.102-0.819,0.309-1.53l1.623-5.58c0.257-0.907,0.386-1.479,0.386-1.716
			c0-0.175-0.065-0.322-0.193-0.441c-0.129-0.118-0.301-0.177-0.518-0.177c-0.185,0-0.567,0.046-1.144,0.139V9.964L71.621,9.254
			L71.621,9.254z M71.466,4.323c0.35,0,0.644,0.121,0.881,0.363c0.237,0.242,0.356,0.533,0.356,0.873
			c0,0.34-0.121,0.634-0.363,0.881c-0.242,0.247-0.533,0.371-0.873,0.371c-0.339,0-0.633-0.124-0.88-0.371
			c-0.248-0.247-0.372-0.541-0.372-0.881c0-0.34,0.121-0.631,0.363-0.873C70.819,4.444,71.116,4.323,71.466,4.323"/>
		<path class="st2" d="M80.185,9.254l-0.758,3.833h-0.464c-0.041-1.113-0.278-1.922-0.711-2.427
			c-0.433-0.504-0.968-0.757-1.607-0.757c-0.505,0-0.909,0.14-1.212,0.418c-0.305,0.278-0.457,0.618-0.457,1.02
			c0,0.268,0.059,0.528,0.178,0.78c0.118,0.252,0.383,0.601,0.795,1.043c1.072,1.185,1.764,2.073,2.079,2.666
			c0.314,0.593,0.471,1.157,0.471,1.693c0,0.866-0.358,1.63-1.074,2.295c-0.716,0.664-1.621,0.997-2.713,0.997
			c-0.598,0-1.288-0.139-2.071-0.418c-0.268-0.102-0.479-0.154-0.634-0.154c-0.371,0-0.654,0.19-0.85,0.572H70.71l0.758-4.034h0.464
			c0.041,1.267,0.299,2.162,0.772,2.681c0.474,0.521,1.123,0.781,1.948,0.781c0.628,0,1.128-0.175,1.5-0.526
			c0.37-0.35,0.556-0.783,0.556-1.298c0-0.33-0.067-0.639-0.201-0.927c-0.237-0.494-0.726-1.183-1.468-2.064
			c-0.742-0.881-1.219-1.54-1.429-1.978c-0.212-0.437-0.317-0.878-0.317-1.321c0-0.804,0.294-1.484,0.881-2.04
			c0.587-0.557,1.34-0.835,2.257-0.835c0.267,0,0.509,0.021,0.726,0.062c0.113,0.031,0.384,0.126,0.812,0.286
			c0.427,0.16,0.713,0.24,0.858,0.24c0.351,0,0.649-0.196,0.897-0.587H80.185L80.185,9.254z"/>
		<path class="st2" d="M85.628,2.824l-3.539,12.241l1.422-1.205c1.546-1.319,2.55-2.293,3.014-2.921
			c0.155-0.206,0.232-0.36,0.232-0.463c0-0.082-0.026-0.157-0.077-0.224c-0.052-0.067-0.149-0.121-0.294-0.162
			c-0.144-0.041-0.397-0.062-0.757-0.062h-0.433l0.124-0.464h5.441l-0.124,0.464c-0.619,0.042-1.155,0.142-1.608,0.301
			c-0.453,0.16-0.892,0.4-1.314,0.719c-0.834,0.618-1.386,1.046-1.654,1.283l-1.066,0.942c0.176,0.598,0.397,1.432,0.665,2.504
			c0.453,1.783,0.757,2.839,0.911,3.168c0.155,0.33,0.314,0.495,0.479,0.495c0.144,0,0.314-0.072,0.51-0.217
			c0.422-0.309,0.881-0.808,1.376-1.499l0.432,0.309c-0.907,1.133-1.599,1.88-2.079,2.241c-0.479,0.36-0.92,0.541-1.322,0.541
			c-0.351,0-0.618-0.134-0.804-0.402c-0.33-0.494-0.881-2.427-1.654-5.796l-1.7,1.484l-1.283,4.421H78.58l4.127-14.204l0.355-1.205
			c0.041-0.206,0.063-0.387,0.063-0.541c0-0.196-0.078-0.36-0.233-0.494c-0.155-0.134-0.376-0.201-0.665-0.201
			c-0.196,0-0.5,0.041-0.912,0.124V3.566L85.628,2.824L85.628,2.824z"/>
	</g>
</g>
</svg>
