<svg xmlns="http://www.w3.org/2000/svg" viewBox="0 0 262.8 69"><path d="M13.9 58.9V57c-2 1.5-3.9 2.3-6.1 2.3-3.4 0-6-2.7-6-7v-.2h12.4V52c0-4.6-2.8-7.6-6.9-7.6-4.4 0-7.4 3.2-7.4 8 .1 5.3 3.2 8.6 8 8.6 2.1 0 4-.7 6-2.1M2.1 50.7c.4-2.9 2.6-4.7 5.1-4.7 2.5 0 4.5 1.8 4.9 4.6h-10zM22.8 61h1l4.9-12.9L33.4 61h1l7.1-16.2h-2l-5.5 13-4.7-13h-1l-5.1 13-5.2-13h-1.9zm39.5-.3h5.1V50.3c.9-1.5 2.1-2.6 3.7-2.6s2.3 1.1 2.3 3.3v9.6h5.1V50.4c0-4.1-2-6.3-5.5-6.3-2.2 0-3.9.7-5.6 2.4v-2h-5.1v16.2zm31.6-2.1v2H99V44.4h-5.1v10.4c-1 1.7-2.3 2.6-3.7 2.6-1.6 0-2.3-1.1-2.3-3.3v-9.6h-5.1v10.3c0 4.1 2 6.3 5.6 6.3 2.2-.1 3.8-.8 5.5-2.5m10.6-10.7v6c0 4.9 1.4 7.1 5.8 7.1 1.7 0 3.3-.3 4.9-.9v-3.8c-1.1.5-2.1.8-3.1.8-2.1 0-2.5-.9-2.5-3.1v-6h5.6v-3.6h-5.6v-4.7h-.8l-6.6 7.2V48h2.3zm14.3 12.8h5.1v-7c.7-3.1 2.4-4.8 4.3-4.8.9 0 1.8.4 2.7 1.2l1.4-4.7c-1.2-.8-2.2-1.2-3.2-1.2-2 0-3.5 1.5-5.1 4.6v-4.4h-5.1v16.3zm15.9-21.6c0 1.5 1.2 2.7 2.7 2.7 1.5 0 2.7-1.2 2.7-2.7 0-1.5-1.2-2.7-2.7-2.7-1.5 0-2.7 1.2-2.7 2.7m.2 21.6h5.1V44.4h-5.1v16.3zm10.6-12.8v6c0 4.9 1.4 7.1 5.8 7.1 1.7 0 3.3-.3 4.9-.9v-3.8c-1.1.5-2.1.8-3.1.8-2.1 0-2.5-.9-2.5-3.1v-6h5.6v-3.6h-5.6v-4.7h-.8l-6.6 7.2V48h2.3zm14.1-8.8c0 1.5 1.2 2.7 2.7 2.7s2.7-1.2 2.7-2.7c0-1.5-1.2-2.7-2.7-2.7s-2.7 1.2-2.7 2.7m.2 21.6h5.1V44.4h-5.1v16.3zm9-8.1c0 5 3.6 8.4 8.9 8.4 5.4 0 9-3.5 9-8.4s-3.6-8.5-9-8.5-8.9 3.5-8.9 8.5m5.2 0c0-2.8 1.5-4.6 3.7-4.6 2.1 0 3.7 1.8 3.7 4.6s-1.5 4.6-3.7 4.6c-2.2-.1-3.7-1.8-3.7-4.6m16.1 8.1h5.1V50.3c.9-1.5 2.1-2.6 3.7-2.6s2.3 1.1 2.3 3.3v9.6h5.1V50.4c0-4.1-2-6.3-5.5-6.3-2.2 0-3.9.7-5.6 2.4v-2h-5.1v16.2z"/><path d="M262.8 7.7l-7.8 8.2-9.5.7V8l7.9-8zm-50.7 37.4v-5.4l-16.3-18 9.4.8v-8.6l17.2 19 17.2-19v8.6l9.5-.8-16.4 18v5.4z" fill="#e8e100"/><path d="M50.4 33.8h1.1V69h-1.1z"/></svg>