<svg version="1.0" xmlns="http://www.w3.org/2000/svg" viewBox="0 0 24 24"><path d="M0 0h24v24H0V0z" fill="none"/><path d="M18.15 5.56a3.647 3.647 0 00-2.7-1.27 3.72 3.72 0 00-3.68 3.759v.081c-.002.3.032.598.1.89a10.4 10.4 0 01-7.62-4.2 4.155 4.155 0 00-.5 2A4.078 4.078 0 005.4 10.1a3.597 3.597 0 01-1.68-.52v.05a3.94 3.94 0 003 3.89 3.445 3.445 0 01-1.72.06 3.76 3.76 0 003.45 2.75A7.197 7.197 0 013.88 18a8.63 8.63 0 01-.88-.06 9.997 9.997 0 005.66 1.77c6.79 0 10.51-5.91 10.51-11v-.5A7.878 7.878 0 0021 6.2a7.4 7.4 0 01-2.12.58 3.79 3.79 0 001.62-2.13 7.11 7.11 0 01-2.35.91z" fill-rule="evenodd" clip-rule="evenodd" fill="#000"/></svg>