<svg version="1.0" xmlns="http://www.w3.org/2000/svg" viewBox="0 0 24 24"><path d="M0 0h24v24H0V0z" fill="none"/><path d="M20.82 8.4a3.89 3.89 0 00-.71-1.79 2.61 2.61 0 00-1.8-.76c-2.53-.18-6.3-.18-6.3-.18s-3.78 0-6.3.18a2.57 2.57 0 00-1.8.76 3.896 3.896 0 00-.73 1.79c-.11.966-.17 1.938-.18 2.91v1.37c.01.972.07 1.944.18 2.91.086.648.334 1.263.72 1.79a3.002 3.002 0 002 .77c1.44.14 6.12.18 6.12.18s3.78 0 6.3-.19a2.53 2.53 0 001.8-.76 3.897 3.897 0 00.72-1.79c.103-.967.157-1.938.16-2.91v-1.37c-.01-.972-.07-1.944-.18-2.91zm-10.68 5.94V9.28L15 11.81l-4.86 2.53z" fill-rule="evenodd" clip-rule="evenodd" fill="#000"/></svg>